#define letter_a_width 25
#define letter_a_height 25
static unsigned char letter_a_bits[] = {
   0xff, 0xff, 0xff, 0x01, 0xff, 0xef, 0xff, 0x01, 0xff, 0xc7, 0xff, 0x01,
   0xff, 0x83, 0xff, 0x01, 0xff, 0x81, 0xff, 0x01, 0xff, 0x00, 0xff, 0x01,
   0xff, 0x18, 0xff, 0x01, 0xff, 0x3c, 0xff, 0x01, 0x7f, 0x3c, 0xfe, 0x01,
   0x7f, 0x7e, 0xfe, 0x01, 0x3f, 0x7e, 0xfc, 0x01, 0x3f, 0x00, 0xfc, 0x01,
   0x1f, 0x00, 0xf8, 0x01, 0x1f, 0x00, 0xf8, 0x01, 0x1f, 0x7e, 0xf8, 0x01,
   0x0f, 0xff, 0xf0, 0x01, 0x0f, 0xff, 0xf0, 0x01, 0x07, 0xff, 0xe0, 0x01,
   0x87, 0xff, 0xe1, 0x01, 0xc7, 0xff, 0xe3, 0x01, 0xc3, 0xff, 0xc3, 0x01,
   0xc3, 0xff, 0xc3, 0x01, 0xe3, 0xff, 0x8f, 0x01, 0xe1, 0xff, 0x0f, 0x01,
   0xff, 0xff, 0xff, 0x01};
